<?xml version="1.0" encoding="UTF-8" standalone="no"?>
<svg
   xmlns:dc="http://purl.org/dc/elements/1.1/"
   xmlns:cc="http://creativecommons.org/ns#"
   xmlns:rdf="http://www.w3.org/1999/02/22-rdf-syntax-ns#"
   xmlns:svg="http://www.w3.org/2000/svg"
   xmlns="http://www.w3.org/2000/svg"
   xmlns:sodipodi="http://sodipodi.sourceforge.net/DTD/sodipodi-0.dtd"
   xmlns:inkscape="http://www.inkscape.org/namespaces/inkscape"
   sodipodi:docname="email_icon.svg"
   inkscape:version="1.0beta2 (2b71d25, 2019-12-03)"
   id="svg8"
   version="1.1"
   viewBox="0 0 170.43548 170.37578"
   height="170.37578mm"
   width="170.43547mm">
  <defs
     id="defs2" />
  <sodipodi:namedview
     inkscape:window-maximized="0"
     inkscape:window-y="23"
     inkscape:window-x="0"
     inkscape:window-height="855"
     inkscape:window-width="1440"
     showgrid="false"
     inkscape:document-rotation="0"
     inkscape:current-layer="layer1"
     inkscape:document-units="mm"
     inkscape:cy="554.80179"
     inkscape:cx="339.09652"
     inkscape:zoom="0.35"
     inkscape:pageshadow="2"
     inkscape:pageopacity="0.0"
     borderopacity="1.0"
     bordercolor="#666666"
     pagecolor="#ffffff"
     id="base" />
  <metadata
     id="metadata5">
    <rdf:RDF>
      <cc:Work
         rdf:about="">
        <dc:format>image/svg+xml</dc:format>
        <dc:type
           rdf:resource="http://purl.org/dc/dcmitype/StillImage" />
        <dc:title></dc:title>
      </cc:Work>
    </rdf:RDF>
  </metadata>
  <g
     transform="translate(-16.114045,-1.3753595)"
     id="layer1"
     inkscape:groupmode="layer"
     inkscape:label="Layer 1">
    <path
       inkscape:connector-curvature="0"
       id="path24"
       d="M 97.537577,171.65849 C 85.389327,171.21231 75.001596,168.59215 63.853343,163.16208 55.306324,158.99903 49.069234,154.60374 42.027696,147.78148 33.27667,139.30298 27.115462,130.3045 22.462011,119.20573 19.554576,112.27132 17.30887,103.49098 16.487284,95.845601 15.992867,91.244722 15.989016,81.870053 16.479529,77.323056 19.83935,46.186513 40.393947,19.071999 69.495745,7.3869368 79.812458,3.2445245 89.696762,1.3735901 101.25534,1.3753608 c 11.70953,0.00129 21.46686,1.8436241 31.8472,6.011576 16.48527,6.6192172 31.01214,18.7648842 40.49696,33.8588042 7.36624,11.722427 11.91096,25.724541 12.76423,39.326045 1.3239,21.103884 -4.43224,40.471524 -17.12131,57.607944 -3.13838,4.23834 -12.13444,13.22043 -16.4211,16.3956 -11.55288,8.55735 -23.97356,13.90281 -37.38888,16.09097 -6.02688,0.98304 -10.85524,1.25075 -17.894988,0.99219 z m 14.020853,-10.77008 c 32.07352,-4.37319 57.9506,-29.25616 63.6099,-61.166193 2.43223,-13.714217 1.06283,-27.614214 -3.99096,-40.510018 -4.5142,-11.518873 -12.10712,-22.146275 -21.31806,-29.837717 -11.28456,-9.42298 -23.9718,-15.099154 -38.47186,-17.212056 -5.30986,-0.773739 -14.267911,-0.786134 -19.91817,-0.02753 -33.577791,4.50789 -60.043603,30.971697 -64.596342,64.591441 -0.761006,5.619629 -0.746259,14.568461 0.03282,19.918169 2.829098,19.426704 12.51735,36.487674 27.531329,48.482574 16.219914,12.95835 36.54578,18.56682 57.121343,15.76138 z M 45.89981,90.149066 V 48.601547 l 54.88661,-0.0875 c 30.18762,-0.0482 55.04044,-0.03632 55.22847,0.02636 0.22536,0.0751 0.34188,14.265834 0.34188,41.635087 V 131.69658 H 101.12829 45.89981 Z m 95.3828,32.057804 c -1.01007,-1.08147 -7.2137,-7.46701 -13.78588,-14.19002 l -11.94939,-12.223696 -3.6244,3.534427 c -2.87049,2.799229 -4.01448,3.679619 -5.49967,4.232329 -3.79753,1.4133 -7.552036,1.30485 -10.915178,-0.31525 -0.858666,-0.41363 -3.146411,-2.29173 -5.08387,-4.173515 L 86.901538,95.649684 75.030921,107.77412 c -6.528844,6.66844 -12.776856,13.08623 -13.88447,14.26177 l -2.013846,2.13733 h 41.993245 41.99322 z m 7.29634,-59.227507 c -0.14218,-0.104564 -6.39469,5.988439 -13.89445,13.54002 l -13.63592,13.730146 13.8069,14.099291 13.80693,14.0993 0.0875,-27.639327 c 0.0481,-15.201612 -0.0288,-27.724855 -0.17099,-27.82943 z M 67.764064,104.01076 81.513016,90.003817 67.484214,75.883567 53.45541,61.763334 53.435635,89.890523 c -0.01163,15.886437 0.110637,28.127197 0.27985,28.127197 0.164767,0 6.486619,-6.30313 14.048553,-14.00696 z m 35.683526,-7.662188 c 0.65741,-0.278928 8.99593,-8.470323 20.71278,-20.347336 L 143.77272,56.12079 H 101.43815 59.103564 l 3.91333,4.018165 c 13.282919,13.638793 35.469662,35.829056 36.209238,36.215017 1.127008,0.588125 2.827658,0.585951 4.221458,-0.0048 z"
       style="fill:#000000;stroke-width:0.341972" />
  </g>
</svg>
