<?xml version="1.0" encoding="UTF-8" standalone="no"?>
<svg
   xmlns:dc="http://purl.org/dc/elements/1.1/"
   xmlns:cc="http://creativecommons.org/ns#"
   xmlns:rdf="http://www.w3.org/1999/02/22-rdf-syntax-ns#"
   xmlns:svg="http://www.w3.org/2000/svg"
   xmlns="http://www.w3.org/2000/svg"
   xmlns:sodipodi="http://sodipodi.sourceforge.net/DTD/sodipodi-0.dtd"
   xmlns:inkscape="http://www.inkscape.org/namespaces/inkscape"
   inkscape:version="1.0beta2 (2b71d25, 2019-12-03)"
   sodipodi:docname="github_icon.svg"
   viewBox="0 0 1173.4092 1173.2219"
   height="1173.2219"
   width="1173.4092"
   id="svg118"
   version="1.1">
  <metadata
     id="metadata124">
    <rdf:RDF>
      <cc:Work
         rdf:about="">
        <dc:format>image/svg+xml</dc:format>
        <dc:type
           rdf:resource="http://purl.org/dc/dcmitype/StillImage" />
        <dc:title></dc:title>
      </cc:Work>
    </rdf:RDF>
  </metadata>
  <defs
     id="defs122" />
  <sodipodi:namedview
     inkscape:current-layer="g126"
     inkscape:window-maximized="0"
     inkscape:window-y="23"
     inkscape:window-x="0"
     inkscape:cy="582.39313"
     inkscape:cx="591.15852"
     inkscape:zoom="0.22666667"
     showgrid="false"
     id="namedview120"
     inkscape:window-height="766"
     inkscape:window-width="1075"
     inkscape:pageshadow="2"
     inkscape:pageopacity="0"
     guidetolerance="10"
     gridtolerance="10"
     objecttolerance="10"
     borderopacity="1"
     inkscape:document-rotation="0"
     bordercolor="#666666"
     pagecolor="#ffffff" />
  <g
     transform="translate(-8.8414813,-17.606869)"
     id="g126"
     inkscape:label="Image"
     inkscape:groupmode="layer">
    <path
       inkscape:connector-curvature="0"
       id="path130"
       d="M 557.76421,1190.3036 C 393.85468,1178.4709 248.33127,1104.2634 142.96241,978.78173 72.509338,894.88038 27.009232,789.80264 11.871489,676.0404 7.8177734,645.5769 7.835268,561.45614 11.901445,531.4503 24.982974,434.91806 56.132113,352.35046 108.94197,274.22372 c 40.0737,-59.28495 97.20457,-116.41387 156.4467,-156.44134 78.79011,-53.235262 160.9405,-84.057899 258.82425,-97.110286 30.81978,-4.109698 111.49354,-4.08094 142.19357,0.05069 139.20356,18.734059 254.59566,76.439921 350.70811,175.383836 127.102,130.84645 185.3256,311.93917 158.8792,494.1612 -16.5479,114.01784 -67.5199,221.52468 -146.1271,308.20193 -48.17634,53.12225 -105.18643,96.60175 -169.45055,129.23355 -62.166,31.5665 -120.19974,49.4024 -191.61314,58.8897 -23.24776,3.0884 -89.14979,5.2907 -111.0388,3.7106 z M 471.9728,1074.2622 c 2.40207,-1.7821 2.80305,-8.1868 3.7258,-59.5135 l 1.03405,-57.51648 -3.44665,-3.06731 c -3.18876,-2.83784 -4.25152,-2.91812 -14.20477,-1.0734 -18.26413,3.38496 -45.80714,4.83857 -61.3042,3.23518 -30.71774,-3.17803 -50.51922,-12.00885 -69.21997,-30.87018 -7.06704,-7.12762 -14.08108,-15.47578 -15.58675,-18.55123 -1.50567,-3.07558 -6.62442,-13.95135 -11.37501,-24.16844 -15.3561,-33.02645 -31.8927,-54.11008 -50.94887,-64.95829 -9.07476,-5.16606 -18.45048,-14.01605 -16.7015,-15.76504 2.47819,-2.47812 24.43325,-0.80403 33.28393,2.53804 18.09988,6.83452 36.72178,23.2991 52.6422,46.54355 13.39197,19.55274 20.65507,27.37294 33.11851,35.65867 22.316,14.83555 51.16293,20.20663 78.63271,14.64047 18.87252,-3.82401 42.06566,-11.50917 45.20596,-14.97921 1.45729,-1.61023 2.65665,-3.94959 2.66523,-5.19854 0.0332,-4.82527 7.76724,-18.52391 13.70075,-24.26681 3.42054,-3.31055 10.17267,-7.49847 15.00475,-9.30641 10.91896,-4.08523 12.81858,-5.63721 12.81858,-10.47231 0,-4.89166 -2.74963,-5.92157 -24.28742,-9.09732 -59.72956,-8.80709 -111.39836,-27.35676 -153.05512,-54.94839 -23.5538,-15.60099 -52.41862,-44.04889 -66.89627,-65.93008 -31.62247,-47.79346 -49.27465,-112.49928 -43.40724,-159.11389 4.91488,-39.04711 20.03282,-65.46679 59.79923,-104.50342 12.08454,-11.86278 22.6371,-22.7741 23.45012,-24.2474 1.01555,-1.84029 0.50266,-4.95457 -1.63866,-9.95009 -8.79799,-20.52488 -11.65788,-67.23389 -5.78086,-94.41579 3.52236,-16.29136 10.18173,-36.32531 12.62057,-37.96759 2.3576,-1.58758 21.15035,0.0364 33.83571,2.92383 28.22182,6.42393 64.09383,22.93802 99.42094,45.76957 l 14.74385,9.5288 10.02019,-3.32027 c 23.06815,-7.64383 61.79415,-13.39474 103.48451,-15.36774 41.1642,-1.94809 104.48306,4.37792 135.18625,13.50611 8.62536,2.56435 16.42664,4.24146 17.33618,3.72689 0.90957,-0.51454 7.4054,-4.71325 14.43519,-9.33047 38.79629,-25.48159 93.33217,-47.15543 119.81672,-47.61797 l 11.19309,-0.1955 1.0923,11.98261 c 2.63641,28.92144 4.81733,90.35324 3.86049,108.7418 -1.19952,23.05256 -2.3216,20.27216 17.16416,42.53121 26.75006,30.55727 45.60095,68.50297 53.23864,107.16617 4.03809,20.44148 3.58656,63.55118 -0.93239,89.01661 -8.54006,48.12561 -26.85784,83.90471 -59.83587,116.87389 -41.90354,41.89226 -95.92406,65.44635 -171.45466,74.75767 -28.08197,3.46189 -28.95171,6.02737 -8.84201,26.08122 22.42197,22.35954 28.18441,37.37254 30.81954,80.29435 6.78623,110.53643 7.86987,123.56393 10.52186,126.49433 3.72836,4.1198 6.16035,3.7506 23.9277,-3.632 111.13663,-46.1793 200.27598,-129.03553 253.54241,-235.67124 22.6126,-45.26884 38.5537,-97.33865 46.9034,-153.20491 4.4597,-29.83884 3.982,-102.04098 -0.8826,-133.4063 -8.723,-56.24285 -23.0372,-101.65921 -47.3341,-150.18197 -25.7023,-51.32948 -53.33914,-89.20301 -95.26152,-130.54619 -37.44351,-36.92618 -78.16011,-65.92101 -124.86991,-88.92152 -70.13594,-34.53583 -138.88898,-50.74206 -216.04458,-50.92531 -36.99828,-0.0878 -58.88175,1.88596 -93.57765,8.4405 -88.57504,16.73302 -167.51829,55.81736 -235.84859,116.76725 -88.75357,79.16721 -145.05987,188.08367 -159.71386,308.94355 -3.52423,29.0662 -3.47674,83.0688 0.0983,111.84167 13.70604,110.30922 60.11491,207.68729 135.79955,284.94321 57.07916,58.26426 118.4573,96.79166 196.66953,123.45086 24.1594,8.2349 27.52917,8.8532 31.63811,5.8045 z"
       style="fill:#000000;stroke-width:1.59768" />
  </g>
</svg>
